<?xml version="1.0" standalone="no"?>
<!DOCTYPE svg PUBLIC "-//W3C//DTD SVG 20010904//EN"
 "http://www.w3.org/TR/2001/REC-SVG-20010904/DTD/svg10.dtd">
<svg version="1.0" xmlns="http://www.w3.org/2000/svg"
 width="455.000000pt" height="455.000000pt" viewBox="0 0 455.000000 455.000000"
 preserveAspectRatio="xMidYMid meet">
<metadata>
Created by potrace 1.14, written by Peter Selinger 2001-2017
</metadata>
<g transform="translate(0.000000,455.000000) scale(0.100000,-0.100000)"
fill="#000000" stroke="none">
<path d="M3115 4526 c-57 -14 -194 -76 -228 -103 -26 -20 -164 -177 -188 -212
l-15 -24 -60 41 c-63 43 -266 142 -291 142 -4 0 -24 -28 -43 -63 -25 -43 -42
-63 -58 -65 -18 -3 -8 -13 55 -59 43 -31 180 -129 304 -218 124 -89 257 -185
295 -212 87 -63 201 -130 278 -165 33 -15 62 -31 64 -36 3 -9 -229 -418 -269
-475 l-20 -27 28 -11 c16 -6 22 -13 16 -16 -18 -7 -16 -23 2 -23 8 0 15 -7 15
-16 0 -8 5 -12 10 -9 6 3 10 1 10 -4 0 -6 -4 -11 -10 -11 -5 0 -7 -6 -4 -13 3
-8 -2 -20 -11 -27 -8 -7 -15 -19 -15 -27 0 -7 -40 -82 -89 -166 -48 -84 -105
-182 -125 -219 -21 -38 -44 -68 -51 -68 -12 0 -180 63 -251 95 -31 13 -33 13
-68 -23 -38 -38 -59 -89 -44 -109 5 -7 4 -13 -4 -16 -10 -4 -8 -9 5 -17 9 -6
17 -20 17 -30 0 -23 -38 -61 -60 -59 -39 3 -47 -2 -48 -30 0 -21 5 -30 19 -34
17 -4 19 -9 11 -24 -6 -10 -10 -27 -9 -38 2 -15 -5 -19 -30 -21 -36 -2 -49 18
-38 59 3 13 -2 8 -14 -13 -11 -19 -20 -38 -21 -42 0 -4 18 -13 40 -19 37 -11
42 -10 64 10 20 19 24 32 22 65 -1 22 -6 49 -10 58 -6 13 -3 15 11 12 10 -3
28 4 40 15 15 14 23 17 26 8 2 -7 9 -1 17 13 12 23 12 24 -3 11 -10 -8 -17 -9
-17 -3 0 6 5 14 11 18 6 4 8 19 5 37 -6 28 -5 29 11 15 10 -8 39 -28 66 -43
26 -15 47 -30 47 -34 0 -9 -247 -442 -259 -454 -9 -9 -189 63 -240 96 -44 30
-651 516 -698 560 l-31 29 -27 -41 c-46 -73 -50 -89 -32 -108 9 -10 57 -49
106 -88 49 -38 90 -75 90 -81 1 -6 -20 -19 -45 -29 -85 -32 -90 -112 -10 -170
l41 -30 -65 -5 c-65 -5 -113 -23 -180 -67 -19 -12 -66 -32 -105 -44 -126 -38
-277 -99 -320 -129 -90 -62 -134 -140 -135 -238 0 -97 22 -138 100 -182 45
-25 210 -173 210 -189 0 -3 -19 -5 -42 -4 -24 0 -52 -4 -63 -10 -20 -11 -25
-13 -47 -16 -7 -1 -2 -7 12 -12 l24 -10 -24 -12 c-16 -8 -24 -21 -25 -39 0
-40 -15 -46 -17 -7 0 19 0 44 1 55 1 18 -5 23 -34 26 -19 2 -35 0 -35 -5 0 -5
-13 -29 -30 -54 -16 -24 -30 -50 -30 -58 0 -21 -12 -24 -44 -10 l-28 12 42 17
c55 22 46 30 -15 14 -42 -11 -49 -11 -53 2 -3 8 -32 41 -66 72 -66 62 -95 71
-132 40 -39 -31 -46 -57 -39 -160 13 -204 9 -190 72 -246 31 -28 66 -55 77
-60 19 -8 19 -9 -11 -17 -56 -16 -73 -50 -73 -144 0 -90 10 -112 72 -156 l30
-22 -6 21 c-7 22 8 62 23 62 4 0 30 -20 57 -45 63 -57 75 -60 53 -11 -16 35
20 86 62 86 32 0 39 -19 13 -41 -8 -7 -22 -26 -31 -43 -9 -17 -19 -33 -22 -36
-3 -3 -14 -22 -23 -42 -10 -21 -21 -38 -26 -38 -12 0 -58 51 -65 73 -4 11 -12
15 -18 11 -8 -4 11 -29 52 -68 114 -108 207 -186 222 -186 12 0 177 65 252 99
11 5 63 28 115 50 73 32 100 49 114 72 10 16 15 37 12 46 -4 9 1 27 10 41 11
16 17 50 18 100 2 69 4 76 26 84 17 6 28 4 41 -8 18 -16 19 -16 19 8 0 26 -26
46 -32 26 -3 -7 -10 -8 -17 -4 -9 6 -7 12 9 23 19 14 23 13 35 -3 8 -11 15
-22 15 -25 0 -4 7 -10 16 -13 8 -3 13 -2 10 3 -3 5 1 11 9 15 10 4 15 -1 15
-15 0 -24 17 -59 29 -59 5 0 7 9 4 20 -3 11 -3 26 0 34 8 21 57 -3 57 -28 0
-18 -2 -18 -25 4 -25 23 -25 23 -25 2 0 -21 24 -52 41 -52 5 0 14 -12 20 -26
5 -15 11 -25 12 -23 2 2 0 47 -3 99 -8 104 -4 125 16 89 7 -13 13 -19 14 -13
0 7 9 14 21 17 19 5 20 12 17 79 -2 40 -7 76 -12 79 -4 4 -3 10 3 13 6 4 11 3
11 -3 0 -5 39 8 88 29 l87 39 7 58 c3 32 4 81 1 110 l-5 52 39 16 c21 9 65 42
98 74 88 86 160 123 251 129 61 4 80 1 115 -17 28 -15 45 -19 53 -12 7 6 48
23 91 39 78 29 80 30 86 68 10 60 89 116 89 62 0 -12 12 -35 28 -51 l27 -29
-29 -25 c-23 -20 -26 -27 -15 -34 10 -6 10 -9 2 -9 -7 0 -13 -5 -13 -11 0 -5
4 -8 9 -5 10 7 25 -24 16 -33 -3 -3 -10 0 -14 8 -6 10 -10 9 -15 -4 -5 -15 -2
-16 21 -11 52 12 56 11 73 -19 9 -16 75 -78 147 -136 127 -102 133 -106 200
-117 37 -6 77 -11 88 -10 11 0 35 -4 53 -10 19 -6 32 -7 32 -1 0 5 -8 9 -17 9
-16 0 -16 2 -3 11 12 8 10 9 -8 4 -24 -7 -56 11 -46 26 10 17 45 9 69 -17 19
-20 22 -30 15 -49 -6 -17 -6 -27 2 -31 8 -5 5 -10 -8 -15 -18 -7 -17 -8 3 -8
16 -1 24 -9 28 -28 3 -16 10 -42 15 -59 6 -17 10 -40 10 -52 0 -12 11 -45 23
-74 30 -68 138 -168 226 -211 60 -29 73 -31 171 -31 108 0 174 14 184 39 3 9
18 15 35 15 34 0 101 36 101 54 0 22 26 49 49 51 27 2 81 53 81 77 0 25 29 68
45 68 24 0 57 67 50 99 -5 23 -1 33 19 49 15 11 26 27 26 36 0 9 5 16 10 16
12 0 14 232 2 245 -5 6 -22 41 -37 78 -22 53 -42 80 -84 118 -30 27 -59 49
-63 49 -18 0 -6 23 28 55 30 29 34 37 24 54 -16 30 -70 25 -70 -7 0 -8 -3 -12
-7 -9 -3 4 -12 2 -19 -4 -14 -12 -19 -9 -87 41 -44 33 -60 60 -36 60 5 0 8 4
4 9 -3 5 4 16 15 24 17 12 18 15 5 35 -12 17 -20 19 -43 13 -16 -5 -38 -15
-50 -22 -29 -18 -19 -24 -263 164 l-49 39 0 -44 c0 -69 -28 -85 -80 -46 -26
19 -30 28 -30 67 0 25 4 42 8 36 4 -5 14 -16 23 -23 13 -10 19 -9 30 5 10 12
11 15 1 9 -7 -4 -19 -2 -28 4 -11 10 -12 16 -2 28 12 13 10 14 -10 3 -13 -7
-26 -10 -30 -7 -3 3 0 6 6 6 24 0 11 19 -14 22 -39 4 -53 32 -30 57 22 24 35
26 60 8 15 -11 17 -17 7 -35 -12 -22 1 -32 14 -12 3 5 17 10 31 10 13 0 24 5
24 10 0 6 -11 10 -24 10 -23 0 -56 36 -56 60 0 6 38 53 83 105 306 343 540
698 614 933 25 77 28 102 28 222 0 127 -2 139 -28 195 -15 33 -43 76 -62 95
-21 22 -36 49 -40 75 -30 174 -126 384 -214 463 -59 53 -167 102 -228 102 -16
0 -33 17 -60 56 -128 189 -271 274 -408 240z m187 -92 c15 -8 38 -24 51 -36
32 -31 107 -128 107 -139 0 -5 -17 -9 -37 -9 -83 0 -353 -59 -432 -95 -31 -14
-70 -42 -87 -62 l-32 -36 -45 29 c-25 16 -48 34 -51 41 -3 7 44 66 104 131 95
103 119 123 179 151 109 50 178 57 243 25z m-938 -179 c-4 -8 -8 -15 -10 -15
-2 0 -4 7 -4 15 0 8 4 15 10 15 5 0 7 -7 4 -15z m91 5 c3 -6 -1 -7 -9 -4 -18
7 -21 14 -7 14 6 0 13 -4 16 -10z m-52 -60 c-3 -12 -8 -19 -11 -16 -5 6 5 36
12 36 2 0 2 -9 -1 -20z m1125 -82 c29 -74 65 -198 59 -204 -3 -3 -14 8 -26 25
-35 49 -86 74 -150 75 -72 1 -133 -28 -211 -100 l-58 -54 -78 56 c-113 80
-109 74 -74 116 16 19 49 44 72 53 70 29 318 83 384 84 l62 1 20 -52z m199 0
c73 -43 179 -257 207 -415 l6 -33 -58 0 c-32 0 -82 -7 -111 -16 -29 -8 -56
-13 -59 -10 -3 4 -9 46 -13 94 -8 100 -39 238 -74 332 -14 36 -25 70 -25 76 0
16 83 -3 127 -28z m-1200 -23 c-7 -13 -14 -20 -15 -14 -2 5 2 16 8 24 18 21
20 18 7 -10z m13 -61 c0 -2 -9 0 -20 6 -11 6 -20 13 -20 16 0 2 9 0 20 -6 11
-6 20 -13 20 -16z m302 -114 c-48 -85 -46 -83 -67 -60 -15 17 -16 20 -3 15 9
-4 19 -1 24 6 5 8 3 10 -7 4 -8 -4 -2 4 14 19 30 29 33 42 15 49 -8 3 -5 6 6
6 15 1 16 4 6 15 -10 13 -8 13 13 3 l25 -12 -26 -45z m657 -14 c21 -45 31
-157 21 -244 -11 -98 -46 -212 -66 -212 -18 0 -17 18 1 50 28 50 20 77 -40
123 -36 27 -55 49 -55 63 0 14 -19 34 -60 63 -33 23 -60 46 -60 51 0 5 21 30
48 55 91 88 183 110 211 51z m-638 -79 c-10 -9 -11 -8 -5 6 3 10 9 15 12 12 3
-3 0 -11 -7 -18z m164 13 c-3 -5 -12 -10 -18 -10 -7 0 -6 4 3 10 19 12 23 12
15 0z m112 -98 c-12 -21 -25 -38 -29 -40 -4 -2 -8 -12 -8 -22 0 -31 -18 -33
-65 -6 -47 28 -69 50 -38 39 14 -5 16 -3 6 7 -6 7 -9 19 -6 27 3 8 1 18 -5 22
-7 4 -8 12 -2 21 8 12 10 12 10 -4 0 -12 5 -16 16 -12 9 3 17 6 20 6 2 0 1 7
-2 15 -4 10 0 15 12 16 11 0 14 3 7 6 -7 2 -13 9 -13 14 0 6 27 -4 59 -21 l59
-32 -21 -36z m-217 38 c-8 -5 -19 -10 -25 -10 -5 0 -3 5 5 10 8 5 20 10 25 10
6 0 3 -5 -5 -10z m1036 -236 c10 -66 -1 -245 -20 -333 -50 -230 -201 -432
-334 -448 -43 -5 -52 -2 -71 18 -29 31 -49 69 -67 128 -21 68 -18 106 9 128
37 29 106 122 138 185 27 54 89 248 89 280 0 31 131 86 207 87 l42 1 7 -46z
m112 -228 c-4 -90 -11 -129 -38 -206 -72 -214 -244 -483 -511 -800 -53 -63
-112 -129 -130 -146 -53 -49 -121 -56 -132 -14 -7 29 -54 44 -73 25 -22 -22
-34 -18 -34 10 0 15 6 25 14 25 20 0 29 16 21 40 -8 26 -45 26 -75 0 -26 -23
-34 -24 -61 -9 -15 8 -33 5 -75 -10 -30 -12 -58 -21 -62 -21 -5 0 -14 17 -22
38 -8 20 -17 42 -19 47 -2 6 3 4 11 -3 14 -11 22 -2 59 65 23 43 48 83 55 88
16 12 139 225 146 252 8 30 114 206 137 227 10 10 37 20 59 23 39 5 40 4 47
-28 21 -95 107 -205 183 -232 44 -16 57 -17 110 -6 51 11 69 21 119 68 148
138 237 353 250 604 4 78 9 104 16 92 5 -10 7 -66 5 -129z m-544 -32 c-15 -32
-29 -53 -31 -46 -5 14 7 43 36 90 25 40 22 17 -5 -44z m-854 -874 c0 -5 -6
-10 -14 -10 -8 0 -23 -3 -33 -6 -16 -5 -16 -4 1 10 22 18 46 21 46 6z m85 -50
c-3 -5 -15 -10 -26 -10 -11 0 -17 5 -14 10 3 6 15 10 26 10 11 0 17 -4 14 -10z
m-125 -9 c0 -12 -20 -25 -27 -18 -7 7 6 27 18 27 5 0 9 -4 9 -9z m-48 -26 c-3
-16 2 -33 13 -45 10 -11 13 -20 8 -20 -6 0 -18 11 -27 25 -13 19 -14 30 -6 45
14 27 18 25 12 -5z m198 -7 c0 -5 -4 -8 -10 -8 -5 0 -10 10 -10 23 0 18 2 19
10 7 5 -8 10 -18 10 -22z m-120 7 c19 -23 1 -39 -21 -19 -10 9 -16 21 -13 25
8 13 20 11 34 -6z m83 -32 c4 -3 2 -12 -4 -19 -20 -24 11 -26 32 -2 l21 23
-16 -27 c-9 -15 -16 -40 -16 -55 0 -20 -3 -24 -9 -14 -5 8 -7 20 -5 26 3 7
-11 20 -30 29 -35 17 -42 26 -29 39 8 9 48 9 56 0z m117 -7 c0 -3 -4 -8 -10
-11 -5 -3 -10 -1 -10 4 0 6 5 11 10 11 6 0 10 -2 10 -4z m-22 -32 c18 -3 29
-14 14 -14 -7 0 -12 -10 -13 -22 0 -13 -3 -17 -6 -10 -2 6 -13 12 -24 12 -20
0 -23 8 -13 34 3 9 11 13 18 9 6 -4 17 -8 24 -9z m-117 -47 c-9 -9 -58 1 -66
13 -3 5 4 6 15 3 11 -3 20 0 20 6 0 8 6 8 20 -1 11 -7 16 -16 11 -21z m159 13
c-6 -11 -13 -20 -16 -20 -2 0 0 9 6 20 6 11 13 20 16 20 2 0 0 -9 -6 -20z
m-40 -52 c0 -4 -11 -7 -25 -6 -23 2 -33 17 -19 31 7 7 44 -14 44 -25z m-1309
-15 c13 -16 12 -17 -3 -4 -10 7 -18 15 -18 17 0 8 8 3 21 -13z m1711 -10 c23
-21 23 -36 -3 -58 -19 -18 -22 -18 -47 -3 -35 21 -36 29 -12 56 25 26 37 27
62 5z m-1568 -28 c-4 -8 -10 -13 -15 -10 -4 3 -6 12 -3 20 4 8 10 13 15 10 4
-3 6 -12 3 -20z m46 -19 c0 -3 -4 -8 -10 -11 -5 -3 -10 -1 -10 4 0 6 5 11 10
11 6 0 10 -2 10 -4z m-50 -36 c0 -5 -4 -10 -10 -10 -5 0 -10 5 -10 10 0 6 5
10 10 10 6 0 10 -4 10 -10z m1504 -9 c17 -19 17 -20 -2 -30 -16 -8 -21 -7 -26
5 -16 43 -1 57 28 25z m-1507 -33 c27 -30 67 -97 60 -104 -1 -1 -34 1 -72 6
-39 5 -92 10 -120 10 -48 1 -95 24 -95 47 0 9 155 72 181 73 8 0 29 -15 46
-32z m153 28 c0 -2 -7 -7 -16 -10 -8 -3 -12 -2 -9 4 6 10 25 14 25 6z m1014
-31 c-4 -8 -10 -15 -15 -15 -4 0 -6 7 -3 15 4 8 10 15 15 15 4 0 6 -7 3 -15z
m366 -21 c0 -8 -4 -12 -10 -9 -5 3 -10 10 -10 16 0 5 5 9 10 9 6 0 10 -7 10
-16z m-1276 -10 c3 -8 2 -12 -4 -9 -6 3 -10 10 -10 16 0 14 7 11 14 -7z m976
-18 c0 -2 -8 -10 -17 -17 -16 -13 -17 -12 -4 4 13 16 21 21 21 13z m-841 -67
c13 -11 20 -19 15 -19 -5 0 -22 -23 -37 -50 -24 -43 -32 -50 -50 -44 -12 4
-24 10 -27 14 -3 4 -15 12 -27 18 -26 14 -20 47 17 89 14 15 24 32 22 36 -3
10 56 -20 87 -44z m1306 -19 c-15 -24 -35 -9 -35 26 l0 37 21 -27 c11 -14 17
-30 14 -36z m-385 35 c0 -8 -4 -15 -10 -15 -5 0 -10 7 -10 15 0 8 5 15 10 15
6 0 10 -7 10 -15z m-75 -14 c3 -5 1 -12 -5 -16 -5 -3 -10 1 -10 9 0 18 6 21
15 7z m158 -21 c3 -11 1 -18 -4 -14 -5 3 -9 12 -9 20 0 20 7 17 13 -6z m-1347
-26 c40 -5 59 -14 92 -44 l41 -38 41 14 c37 13 44 13 73 -3 37 -21 77 -53 77
-64 0 -3 -10 -10 -22 -14 -13 -3 -18 -9 -11 -11 6 -3 27 2 46 10 39 16 47 13
47 -17 0 -10 14 -32 31 -48 18 -16 30 -31 28 -32 -2 -1 -25 -13 -51 -25 -30
-16 -51 -34 -58 -53 -14 -32 -26 -35 -52 -15 -25 19 -120 19 -175 1 -53 -18
-106 -48 -140 -78 -17 -15 -139 -57 -213 -72 -15 -3 -68 -25 -152 -63 -41 -20
-69 -44 -159 -142 -15 -16 -22 -31 -17 -32 23 -8 -8 -36 -56 -51 -67 -21 -69
-21 -63 3 5 21 -7 28 -18 10 -7 -12 -25 -4 -25 11 0 6 4 8 9 5 21 -13 34 25
28 83 -5 48 -3 61 11 73 18 15 84 48 98 48 4 0 16 7 26 16 13 12 21 14 30 6
13 -11 13 -12 17 108 1 25 0 61 -1 80 -3 31 1 36 38 55 23 11 63 43 90 71 75
77 153 115 245 121 58 4 83 2 107 -11 18 -9 32 -15 32 -12 0 2 -29 28 -65 56
-36 28 -65 56 -65 62 0 7 15 8 43 4 23 -3 65 -9 93 -12z m1674 -5 c0 -18 -2
-19 -15 -9 -15 12 -12 30 6 30 5 0 9 -10 9 -21z m-766 -25 c21 -8 20 -20 0
-28 -17 -6 -44 9 -44 25 0 10 21 12 44 3z m-1429 -44 c3 -6 -1 -7 -9 -4 -18 7
-21 14 -7 14 6 0 13 -4 16 -10z m-34 -17 c13 -16 12 -17 -3 -4 -17 13 -22 21
-14 21 2 0 10 -8 17 -17z m60 -23 c9 12 10 12 5 -4 -5 -14 -2 -17 10 -12 14 5
15 4 4 -8 -11 -14 -15 -13 -35 2 -13 9 -21 21 -18 26 3 4 9 2 14 -5 8 -12 11
-11 20 1z m-291 -55 c0 -25 -5 -37 -17 -42 -10 -3 -42 -16 -70 -29 -29 -13
-64 -26 -78 -30 -31 -8 -38 -31 -33 -125 2 -42 -1 -73 -7 -75 -22 -8 -38 16
-43 64 -6 64 23 129 85 189 36 34 122 80 156 82 4 1 7 -15 7 -34z m343 -6 c-8
-8 -13 -7 -18 2 -6 8 -4 10 5 4 10 -6 12 -4 6 11 -6 15 -5 17 5 7 9 -10 10
-16 2 -24z m2077 -27 c0 -15 -2 -15 -10 -2 -13 20 -13 33 0 25 6 -3 10 -14 10
-23z m-426 -8 c3 -8 2 -12 -4 -9 -6 3 -10 10 -10 16 0 14 7 11 14 -7z m-314
-38 c0 -3 -4 -8 -10 -11 -5 -3 -10 -1 -10 4 0 6 5 11 10 11 6 0 10 -2 10 -4z
m835 -26 c3 -5 1 -10 -4 -10 -6 0 -11 5 -11 10 0 6 2 10 4 10 3 0 8 -4 11 -10z
m-725 -34 c0 -3 -4 -8 -10 -11 -5 -3 -10 -1 -10 4 0 6 5 11 10 11 6 0 10 -2
10 -4z m745 -57 c82 -63 96 -78 73 -81 -7 0 -18 -2 -24 -2 -6 -1 -32 -19 -58
-40 -59 -48 -60 -47 -211 86 l-30 27 75 35 c41 19 80 35 85 35 6 1 47 -26 90
-60z m-2345 31 c9 -16 8 -18 -5 -14 -8 4 -15 2 -15 -3 0 -5 -8 -9 -17 -10 -10
-1 -40 -11 -67 -23 -27 -11 -56 -18 -64 -15 -9 3 -12 0 -9 -9 3 -8 0 -17 -8
-20 -7 -2 -16 2 -19 11 -8 19 20 42 50 43 11 0 24 3 27 7 4 3 31 16 59 29 29
12 54 22 55 23 1 0 7 -8 13 -19z m1625 10 c3 -5 1 -10 -4 -10 -6 0 -11 5 -11
10 0 6 2 10 4 10 3 0 8 -4 11 -10z m335 6 c0 -2 -8 -10 -17 -17 -16 -13 -17
-12 -4 4 13 16 21 21 21 13z m55 -6 c3 -6 -1 -7 -9 -4 -18 7 -21 14 -7 14 6 0
13 -4 16 -10z m836 -10 c44 -24 12 -40 -36 -18 -24 11 -25 13 -8 19 10 4 19 8
21 8 2 1 12 -4 23 -9z m-921 -30 c39 -32 62 -40 37 -12 -10 10 -17 22 -17 25
0 13 28 7 50 -11 31 -25 20 -58 -23 -69 l-32 -7 45 -6 c25 -3 44 -9 42 -14 -2
-5 11 -15 30 -23 36 -15 68 -41 68 -55 0 -5 -10 -2 -22 6 -12 9 -30 16 -39 16
-9 0 -22 7 -29 15 -22 27 -43 16 -107 -52 -61 -66 -63 -67 -63 -39 0 16 8 38
18 49 16 19 16 20 0 14 -27 -10 -22 8 13 48 33 38 29 48 -6 15 l-22 -21 0 76
c0 85 5 90 57 45z m490 20 c0 -5 -2 -10 -4 -10 -3 0 -8 5 -11 10 -3 6 -1 10 4
10 6 0 11 -4 11 -10z m-407 -186 c7 -8 -11 -46 -27 -56 -17 -12 -26 -9 -33 7
-10 28 40 68 60 49z m91 -19 c21 -16 21 -17 -11 -34 -31 -16 -33 -15 -33 19 0
33 14 38 44 15z m-1353 -12 c13 -16 12 -17 -3 -4 -10 7 -18 15 -18 17 0 8 8 3
21 -13z m-35 -55 l29 -33 -30 26 c-16 15 -36 24 -42 22 -7 -3 -13 0 -13 6 0
21 27 11 56 -21z m1194 -34 c-14 -15 -40 -19 -40 -5 0 4 10 21 23 37 22 28 22
28 25 6 2 -13 -2 -30 -8 -38z m128 44 c-2 -6 -10 -14 -16 -16 -7 -2 -10 2 -6
12 7 18 28 22 22 4z m-1680 -30 c-2 -27 -9 -34 -38 -43 -19 -6 -52 -19 -74
-29 -28 -12 -42 -14 -49 -7 -15 15 23 51 88 85 66 35 77 34 73 -6z m1487 23
c3 -5 1 -12 -5 -16 -5 -3 -10 1 -10 9 0 18 6 21 15 7z m-1112 -60 c-2 -3 -18
10 -36 29 l-32 34 36 -30 c20 -16 34 -31 32 -33z m1231 28 c-10 -16 -24 -9
-24 12 0 18 2 19 15 9 8 -7 12 -16 9 -21z m-197 -1 c-3 -8 -6 -5 -6 6 -1 11 2
17 5 13 3 -3 4 -12 1 -19z m423 -23 c17 -20 3 -39 -16 -21 -16 16 -19 36 -5
36 5 0 14 -7 21 -15z m-40 -10 c6 -8 8 -20 4 -26 -4 -8 -3 -9 4 -5 7 4 12 2
12 -4 0 -6 -12 -10 -27 -8 -20 2 -28 9 -29 23 -1 37 14 46 36 20z m-42 -41
l19 -27 -45 -43 -44 -43 29 -7 c49 -12 74 -44 33 -44 -11 0 -20 6 -20 14 0 7
-13 19 -30 26 -41 17 -58 39 -39 51 8 5 22 7 33 5 10 -3 25 1 32 9 12 12 12
15 0 22 -9 5 -12 18 -9 36 7 34 16 34 41 1z m-1941 -22 c-10 -10 -17 -30 -17
-44 0 -14 -7 -31 -15 -38 -12 -10 -15 -9 -15 5 0 22 50 109 57 101 4 -3 -1
-14 -10 -24z m-964 -6 c4 -10 1 -13 -8 -9 -8 3 -12 9 -9 14 7 12 11 11 17 -5z
m2637 0 c0 -8 -4 -18 -10 -21 -5 -3 -10 3 -10 14 0 12 5 21 10 21 6 0 10 -6
10 -14z m1090 1 c13 -7 35 -28 48 -47 21 -31 23 -44 20 -110 -5 -93 -47 -178
-125 -257 -77 -76 -154 -108 -250 -104 -58 3 -116 100 -94 159 l9 27 1 -28 c1
-38 28 -87 48 -87 15 0 15 2 1 18 -25 28 -32 62 -14 62 32 0 112 45 153 87 51
50 90 128 99 195 4 29 13 52 21 55 19 7 63 -17 63 -34 0 -8 4 -11 10 -8 18 11
-21 54 -54 60 -18 4 -50 0 -76 -9 -83 -28 -56 -5 30 27 27 10 85 7 110 -6z
m-1158 -22 c-2 -14 -8 -25 -13 -25 -12 0 -11 7 1 31 14 26 18 24 12 -6z m288
10 c10 -12 10 -15 -3 -15 -8 0 -20 7 -27 15 -10 12 -10 15 3 15 8 0 20 -7 27
-15z m-2170 -35 c0 -5 -2 -10 -4 -10 -3 0 -8 5 -11 10 -3 6 -1 10 4 10 6 0 11
-4 11 -10z m670 -22 c0 -5 -9 -8 -20 -8 -10 0 -34 -6 -52 -14 -18 -8 -54 -23
-80 -33 -27 -10 -48 -22 -48 -28 0 -10 -20 15 -20 25 0 3 15 11 33 19 17 7 52
23 77 34 75 36 109 37 110 5z m2250 8 c0 -3 -4 -8 -10 -11 -5 -3 -10 -1 -10 4
0 6 5 11 10 11 6 0 10 -2 10 -4z m-840 -20 c0 -3 -4 -8 -10 -11 -5 -3 -10 -1
-10 4 0 6 5 11 10 11 6 0 10 -2 10 -4z m831 -49 c-8 -8 -11 -3 -11 19 1 25 2
27 11 11 8 -14 8 -22 0 -30z m-105 6 c-10 -10 -19 5 -10 18 6 11 8 11 12 0 2
-7 1 -15 -2 -18z m54 17 c0 -5 -4 -10 -10 -10 -5 0 -10 5 -10 10 0 6 5 10 10
10 6 0 10 -4 10 -10z m-3347 -53 c32 -21 34 -36 8 -65 -23 -28 -27 -27 -46 2
-14 20 -14 29 -4 47 9 17 9 24 0 27 -6 2 -8 8 -5 14 4 6 9 6 13 1 3 -5 18 -16
34 -26z m237 -32 c0 -30 -5 -57 -10 -60 -17 -10 -70 5 -70 20 0 7 -11 22 -24
32 -23 19 -23 20 -5 31 10 7 26 12 34 12 8 0 15 4 15 9 0 10 39 20 53 13 4 -2
7 -27 7 -57z m3105 24 c4 -11 11 -17 16 -14 5 4 9 1 9 -4 0 -6 -6 -11 -13 -11
-7 0 -18 -9 -25 -21 -10 -15 -10 -19 -1 -14 7 5 10 3 7 -6 -5 -16 -98 -20 -97
-4 0 6 10 9 22 7 32 -4 75 54 58 79 -6 10 -11 22 -11 25 0 13 29 -18 35 -37z
m35 31 c0 -5 -7 -10 -16 -10 -8 0 -12 5 -9 10 3 6 10 10 16 10 5 0 9 -4 9 -10z
m-3260 -10 c0 -5 -4 -10 -10 -10 -5 0 -10 5 -10 10 0 6 5 10 10 10 6 0 10 -4
10 -10z m3122 -12 c-7 -7 -12 -8 -12 -2 0 14 12 26 19 19 2 -3 -1 -11 -7 -17z
m-28 -107 c-4 -3 -9 0 -11 7 -3 6 -12 12 -21 12 -13 0 -11 4 6 20 12 12 23 26
24 33 1 7 3 -5 5 -27 3 -21 1 -41 -3 -45z m-3260 29 c10 -13 9 -13 -6 -1 -10
7 -18 21 -17 30 0 13 1 14 6 1 3 -8 11 -22 17 -30z m3296 -45 c0 -8 -4 -15
-10 -15 -5 0 -10 7 -10 15 0 8 5 15 10 15 6 0 10 -7 10 -15z m45 5 c-3 -5 -11
-10 -16 -10 -6 0 -7 5 -4 10 3 6 11 10 16 10 6 0 7 -4 4 -10z m-97 -22 c2 -12
-3 -18 -15 -18 -26 0 -47 16 -38 29 10 18 49 9 53 -11z m2 -32 c0 -9 -30 -14
-35 -6 -4 6 3 10 14 10 12 0 21 -2 21 -4z m-2349 -38 c11 -21 11 -22 -4 -9
-10 7 -17 17 -17 22 0 15 9 10 21 -13z m-581 -18 c0 -5 8 -10 18 -10 15 -1 15
-2 1 -13 -8 -7 -19 -21 -23 -32 -5 -13 -10 -15 -13 -7 -3 6 -11 12 -19 12 -8
0 -14 5 -14 10 0 6 7 10 15 10 8 0 15 9 15 20 0 11 5 20 10 20 6 0 10 -4 10
-10z m575 -20 c3 -5 1 -10 -4 -10 -6 0 -11 5 -11 10 0 6 2 10 4 10 3 0 8 -4
11 -10z m93 -48 c23 -77 24 -82 9 -82 -10 0 -13 8 -9 25 2 14 -3 36 -12 50
-14 21 -19 23 -36 13 -27 -17 -37 -2 -14 20 27 26 50 17 62 -26z m-930 -10 c3
-45 1 -48 -30 -31 -18 10 -20 9 -14 -6 6 -16 4 -16 -10 -4 -10 8 -12 15 -5 17
6 2 11 10 11 18 0 24 20 56 33 51 7 -2 13 -22 15 -45z m792 -2 c0 -5 -7 -10
-15 -10 -8 0 -15 5 -15 10 0 6 7 10 15 10 8 0 15 -4 15 -10z m-110 -40 c0 -5
-2 -10 -4 -10 -3 0 -8 5 -11 10 -3 6 -1 10 4 10 6 0 11 -4 11 -10z m-694 -42
c4 -6 2 -14 -4 -16 -7 -2 -12 -8 -12 -13 0 -6 5 -7 10 -4 15 9 100 -34 100
-50 0 -7 -11 -20 -23 -28 -13 -9 -30 -29 -37 -46 -7 -17 -16 -31 -20 -31 -18
0 -70 60 -70 80 0 18 -3 20 -14 11 -11 -9 -15 -5 -20 20 -7 37 7 67 37 79 31
12 45 12 53 -2z m684 -102 c0 -39 -6 -30 -13 19 -4 27 -3 35 3 25 5 -8 10 -28
10 -44z m-30 18 c0 -8 -7 -14 -15 -14 -15 0 -21 21 -9 33 10 9 24 -2 24 -19z
m-367 -61 c-17 -26 -21 -27 -43 -13 -10 7 -11 12 -4 18 6 4 13 15 17 25 5 15
10 15 26 5 17 -11 18 -14 4 -35z m-39 -109 c3 -8 2 -12 -4 -9 -6 3 -10 10 -10
16 0 14 7 11 14 -7z m416 -26 c-13 -13 -19 -16 -15 -8 14 25 28 41 32 36 3 -3
-5 -15 -17 -28z m-591 -44 c-4 -12 -5 -25 -1 -29 4 -4 0 -6 -8 -3 -19 6 -25
55 -9 75 12 13 14 13 20 -4 3 -10 3 -28 -2 -39z m431 32 c0 -3 -4 -8 -10 -11
-5 -3 -10 -1 -10 4 0 6 5 11 10 11 6 0 10 -2 10 -4z m-280 -47 c0 -6 -4 -7
-10 -4 -5 3 -10 11 -10 16 0 6 5 7 10 4 6 -3 10 -11 10 -16z m7 -125 c-3 -3
-12 -4 -19 -1 -8 3 -5 6 6 6 11 1 17 -2 13 -5z"/>
<path d="M1742 1711 c7 -11 16 -21 20 -21 16 0 68 -54 68 -71 0 -10 6 -19 13
-19 7 0 30 -9 51 -21 50 -27 58 -18 9 12 -21 13 -42 29 -46 36 -4 7 -35 33
-68 59 -37 28 -56 38 -47 25z"/>
<path d="M1201 1284 c0 -11 3 -14 6 -6 3 7 2 16 -1 19 -3 4 -6 -2 -5 -13z"/>
<path d="M3057 1343 c-4 -3 -7 -11 -7 -17 0 -6 5 -5 12 2 6 6 9 14 7 17 -3 3
-9 2 -12 -2z"/>
<path d="M3215 1110 c3 -5 8 -10 11 -10 2 0 4 5 4 10 0 6 -5 10 -11 10 -5 0
-7 -4 -4 -10z"/>
<path d="M1900 3407 c0 -2 26 -24 58 -48 31 -23 90 -69 130 -102 41 -32 75
-57 78 -55 3 3 -98 83 -253 201 -7 5 -13 7 -13 4z"/>
<path d="M2886 3369 c-19 -22 -25 -38 -20 -53 14 -46 18 -48 56 -22 20 13 40
21 44 18 4 -4 4 -1 0 6 -4 6 -3 12 2 12 17 0 23 31 9 48 -22 30 -62 26 -91 -9z
m58 15 c22 -8 20 -36 -4 -62 -24 -26 -55 -29 -64 -6 -6 17 -2 29 22 57 16 19
22 20 46 11z"/>
<path d="M2850 3281 c0 -6 5 -13 10 -16 18 -11 11 -74 -10 -95 -26 -26 -44
-25 -58 3 -7 14 -11 17 -11 6 -1 -8 5 -23 12 -33 17 -24 47 -15 70 21 18 28
18 28 13 3 -5 -24 -4 -24 9 -6 17 23 19 36 5 36 -5 0 -7 7 -4 15 7 18 -14 75
-27 75 -5 0 -9 -4 -9 -9z"/>
<path d="M1458 3257 c-57 -48 -59 -88 -5 -133 29 -24 32 -25 42 -9 33 56 58
77 91 73 27 -3 35 1 43 20 15 32 14 35 -11 29 -23 -7 -58 8 -71 29 -12 21 -59
16 -89 -9z m-6 -39 c-7 -7 -12 -8 -12 -2 0 14 12 26 19 19 2 -3 -1 -11 -7 -17z"/>
<path d="M2840 3250 c0 -5 5 -10 10 -10 6 0 10 5 10 10 0 6 -4 10 -10 10 -5 0
-10 -4 -10 -10z"/>
<path d="M2764 3139 c-14 -23 -13 -40 2 -46 8 -3 14 -11 14 -19 0 -19 16 -18
24 2 9 23 -28 81 -40 63z"/>
<path d="M1783 3120 c-43 -17 -23 -26 37 -16 33 5 62 7 66 3 7 -7 -67 -147
-78 -147 -4 0 -16 27 -25 60 -10 33 -22 60 -27 60 -4 0 -5 -7 -2 -15 3 -9 13
-40 22 -70 18 -65 49 -89 71 -59 18 25 93 160 93 168 0 3 -7 6 -15 6 -8 0 -15
5 -15 10 0 12 -97 12 -127 0z m106 -83 c-27 -50 -49 -78 -49 -63 0 9 74 125
77 122 2 -1 -11 -28 -28 -59z"/>
<path d="M2310 3096 c0 -3 27 -26 60 -51 33 -25 60 -44 60 -41 0 3 -27 26 -60
51 -33 25 -60 44 -60 41z"/>
<path d="M2380 3076 c0 -2 8 -10 18 -17 15 -13 16 -12 3 4 -13 16 -21 21 -21
13z"/>
<path d="M1974 3062 c-6 -4 -17 -18 -24 -32 -13 -25 -13 -25 8 -6 20 18 22 17
66 -15 25 -18 46 -36 46 -40 0 -16 -82 -149 -92 -149 -6 0 -30 16 -54 35 l-43
35 26 45 c13 25 22 45 19 45 -5 0 -56 -83 -56 -92 0 -7 97 -81 127 -97 20 -10
24 -8 38 21 l16 33 -20 -25 c-38 -48 -31 -13 14 66 25 43 45 84 45 90 0 6 -22
27 -50 46 -27 19 -47 38 -43 41 9 9 -9 8 -23 -1z"/>
<path d="M2826 3046 c-16 -19 -17 -19 -11 -2 5 16 3 17 -10 6 -16 -14 -20 -40
-6 -40 5 0 7 -8 4 -18 -5 -22 31 -57 48 -46 7 4 24 9 38 10 13 2 31 10 40 18
25 25 6 28 -24 4 -30 -23 -26 -9 7 28 17 20 18 21 1 36 -29 25 -66 27 -87 4z
m70 -10 c14 -35 -44 -88 -72 -65 -19 15 -18 21 7 53 22 28 56 35 65 12z"/>
<path d="M2427 3039 c7 -7 15 -10 18 -7 3 3 -2 9 -12 12 -14 6 -15 5 -6 -5z"/>
<path d="M2676 3011 c20 -21 36 -25 81 -18 25 4 44 17 24 17 -7 0 -9 5 -5 11
3 6 -6 3 -21 -7 -26 -17 -28 -17 -40 0 -10 13 -14 14 -17 4 -4 -10 -9 -10 -24
1 -16 12 -16 11 2 -8z"/>
<path d="M2100 2970 c0 -5 5 -10 11 -10 5 0 7 5 4 10 -3 6 -8 10 -11 10 -2 0
-4 -4 -4 -10z"/>
<path d="M2542 2958 c3 -12 242 -138 261 -138 4 0 7 6 7 13 0 7 -33 26 -72 41
-40 16 -98 44 -129 62 -62 37 -73 41 -67 22z"/>
<path d="M2075 2905 c-15 -26 -25 -49 -22 -51 3 -3 17 16 31 42 34 61 27 69
-9 9z"/>
<path d="M2920 2925 c24 -32 33 -35 52 -18 25 23 22 37 -4 19 -20 -14 -24 -14
-42 2 -20 16 -20 16 -6 -3z"/>
<path d="M2140 2910 c-8 -15 -8 -18 4 -14 10 4 19 -13 34 -63 12 -37 19 -70
16 -72 -3 -3 -34 -7 -69 -9 -40 -3 -65 -9 -65 -16 0 -7 26 -11 82 -10 74 1 83
3 92 23 18 41 -40 181 -76 181 -4 0 -12 -9 -18 -20z"/>
<path d="M2485 2870 c23 -37 260 -149 278 -131 7 7 1 14 -19 21 -64 24 -93 37
-172 78 -89 45 -97 48 -87 32z"/>
<path d="M1796 2756 c-14 -25 -26 -55 -26 -69 0 -28 33 -62 51 -51 7 4 10 3 6
-3 -4 -6 5 -21 18 -33 14 -13 25 -18 25 -11 0 8 7 10 19 6 15 -4 26 5 51 46
17 28 28 55 23 59 -38 34 -126 100 -132 100 -5 0 -21 -20 -35 -44z m64 -11
c11 -13 10 -14 -4 -9 -9 3 -16 10 -16 15 0 13 6 11 20 -6z m5 -135 c3 -5 2
-10 -4 -10 -5 0 -13 5 -16 10 -3 6 -2 10 4 10 5 0 13 -4 16 -10z"/>
<path d="M2460 2758 c41 -35 231 -121 242 -110 12 12 1 18 -87 52 -33 13 -81
36 -106 52 -55 33 -86 37 -49 6z"/>
<path d="M2390 2683 c0 -12 103 -70 182 -103 81 -35 78 -34 78 -17 0 7 -28 23
-62 36 -35 13 -91 39 -125 58 -64 35 -73 38 -73 26z"/>
<path d="M1386 2583 c-3 -3 2 -11 10 -18 14 -9 14 -16 5 -33 -6 -12 -9 -22 -7
-22 3 0 12 13 21 30 14 27 14 30 -4 39 -10 6 -21 8 -25 4z"/>
<path d="M1451 2526 c-1 -10 -9 -25 -18 -32 -16 -12 -16 -13 -1 -14 9 0 19 -6
21 -12 3 -7 6 -5 6 6 1 10 9 25 19 32 15 12 15 13 0 14 -9 0 -19 6 -21 13 -3
6 -6 4 -6 -7z"/>
<path d="M1513 2475 c4 -8 2 -17 -3 -20 -6 -4 -10 -10 -10 -16 0 -5 9 0 20 11
20 20 19 40 -2 40 -5 0 -8 -7 -5 -15z"/>
<path d="M2286 2333 c-6 -14 -5 -15 5 -6 7 7 10 15 7 18 -3 3 -9 -2 -12 -12z"/>
<path d="M3460 1941 c0 -5 10 -11 21 -14 15 -4 20 -11 16 -21 -4 -9 -2 -16 4
-16 20 0 22 33 4 46 -21 16 -45 18 -45 5z"/>
<path d="M2310 1242 c0 -8 53 -42 66 -42 4 0 -7 11 -26 25 -37 27 -40 29 -40
17z"/>
<path d="M2402 1148 c12 -24 24 -72 27 -108 5 -51 8 -59 14 -39 4 15 3 48 -2
73 -5 25 -7 46 -5 46 2 0 -4 14 -14 32 -27 48 -44 45 -20 -4z"/>
<path d="M2504 1065 c5 -11 12 -36 16 -55 l8 -35 1 41 c1 28 -5 46 -16 55 -15
12 -16 12 -9 -6z"/>
<path d="M3135 910 c3 -5 10 -10 16 -10 5 0 9 5 9 10 0 6 -7 10 -16 10 -8 0
-12 -4 -9 -10z"/>
<path d="M2357 796 c-4 -10 -1 -13 9 -9 7 3 14 9 14 14 0 14 -17 10 -23 -5z"/>
<path d="M1846 675 c4 -9 15 -20 26 -26 20 -11 20 -11 2 15 -21 28 -37 34 -28
11z"/>
<path d="M1653 654 c-27 -11 -33 -20 -33 -44 0 -17 5 -30 10 -30 6 0 24 -9 39
-21 27 -20 30 -20 57 -5 16 8 24 15 19 16 -6 0 -19 23 -30 50 -11 28 -22 50
-25 49 -3 0 -20 -7 -37 -15z m47 -57 c0 -5 -4 -5 -10 -2 -5 3 -10 14 -10 23 0
15 2 15 10 2 5 -8 10 -19 10 -23z"/>
<path d="M2223 653 c-8 -23 -44 -63 -56 -63 -5 0 -7 9 -4 19 4 18 3 19 -35 5
-22 -8 -58 -14 -79 -14 -21 0 -40 -4 -43 -9 -3 -5 15 -6 41 -3 33 3 44 2 39
-7 -4 -6 -1 -11 8 -11 8 0 18 5 21 10 4 7 23 8 49 5 43 -7 76 11 61 35 -3 5
-1 10 6 10 7 0 9 3 6 7 -4 3 -2 12 4 20 9 9 8 13 0 13 -6 0 -14 -8 -18 -17z
m-3 -42 c0 -5 -7 -12 -16 -15 -14 -5 -15 -4 -4 9 14 17 20 19 20 6z"/>
<path d="M1554 615 c-17 -13 -17 -14 -2 -15 9 0 20 5 23 11 11 17 0 20 -21 4z"/>
<path d="M1923 596 c-12 -6 -24 -17 -27 -26 -3 -8 -11 -22 -17 -31 -17 -23 -3
-69 20 -69 10 0 21 6 24 14 4 10 0 12 -14 9 -26 -7 -35 22 -15 52 20 31 61 34
69 5 3 -11 2 -20 -3 -20 -4 0 -11 -7 -14 -16 -5 -14 -4 -15 9 -4 8 7 15 9 16
4 0 -5 4 0 9 12 11 29 1 71 -18 76 -10 2 -27 -1 -39 -6z"/>
<path d="M2000 565 c0 -36 65 -59 67 -24 2 16 -1 17 -18 8 -17 -8 -23 -7 -35
8 -7 10 -13 14 -14 8z"/>
<path d="M1541 499 c-23 -30 -23 -32 -5 -49 26 -25 84 -37 84 -17 0 8 7 17 15
21 16 6 9 36 -9 36 -6 0 -17 9 -24 20 -17 28 -35 25 -61 -11z"/>
</g>
</svg>
